<?xml version="1.0" encoding="utf-8"?>
<!-- Svg Vector Icons : http://www.onlinewebfonts.com/icon -->
<!DOCTYPE svg PUBLIC "-//W3C//DTD SVG 1.1//EN" "http://www.w3.org/Graphics/SVG/1.1/DTD/svg11.dtd">
<svg version="1.1" xmlns="http://www.w3.org/2000/svg" xmlns:xlink="http://www.w3.org/1999/xlink" x="0px" y="0px" viewBox="0 0 1000 1000" enable-background="new 0 0 1000 1000" xml:space="preserve">
<metadata> Svg Vector Icons : http://www.onlinewebfonts.com/icon </metadata>
<g><g transform="matrix(1 0 0 -1 0 1952)"><path d="M842.8,1599.2c0,189.3-153.5,342.8-342.8,342.8c-189.3,0-342.8-153.5-342.8-342.8c0-173.4,128.7-316.7,295.8-339.6v-102.5h-66.3c0,0-32.6,4.1-32.6-32.7v-31.6c0,0-6.1-33.7,31.6-33.7h65.6v-62.6c0,0-2-34.7,28.6-34.7h36.7c0,0,31.3-2,31.3,31.6v65.6h66.3c0,0,32.6,1,32.6,31.6v33.7c0,0-1,32.7-32.6,32.7h-67l0.7,102.6C714.6,1283.1,842.8,1426.2,842.8,1599.2L842.8,1599.2z M500.1,1351.5c-136.4,0-247,110.6-247,247s110.6,244.6,247,244.6c136.4,0,247-108.2,247-244.6S636.5,1351.5,500.1,1351.5z"/></g></g>
</svg>